<?xml version="1.0" encoding="UTF-8" standalone="no"?>
<!DOCTYPE svg PUBLIC "-//W3C//DTD SVG 1.1//EN"
 "http://www.w3.org/Graphics/SVG/1.1/DTD/svg11.dtd">
<!-- Generated by graphviz version 2.40.1 (20161225.0304)
 -->
<!-- Title: dependencies Pages: 1 -->
<svg width="504pt" height="284pt"
 viewBox="0.00 0.00 504.00 284.00" xmlns="http://www.w3.org/2000/svg" xmlns:xlink="http://www.w3.org/1999/xlink">
<g id="graph0" class="graph" transform="scale(1 1) rotate(0) translate(4 280)">
<title>dependencies</title>
<polygon fill="#ffffff" stroke="transparent" points="-4,4 -4,-280 500,-280 500,4 -4,4"/>
<text text-anchor="start" x="227.0091" y="-42.4" font-family="sans-serif" font-weight="bold" font-size="14.00" fill="#000000">Legend</text>
<polygon fill="#ffffb3" stroke="transparent" points="14,-10 14,-30 34,-30 34,-10 14,-10"/>
<text text-anchor="start" x="37.629" y="-15.4" font-family="sans-serif" font-size="14.00" fill="#000000"> &#160;Declarations</text>
<polygon fill="#8dd3c7" stroke="transparent" points="127,-10 127,-30 147,-30 147,-10 127,-10"/>
<text text-anchor="start" x="150.7251" y="-15.4" font-family="sans-serif" font-size="14.00" fill="#000000"> &#160;Module</text>
<polygon fill="#80b1d3" stroke="transparent" points="213,-10 213,-30 233,-30 233,-10 213,-10"/>
<text text-anchor="start" x="236.7812" y="-15.4" font-family="sans-serif" font-size="14.00" fill="#000000"> &#160;Bootstrap</text>
<polygon fill="#fdb462" stroke="transparent" points="310,-10 310,-30 330,-30 330,-10 310,-10"/>
<text text-anchor="start" x="333.6732" y="-15.4" font-family="sans-serif" font-size="14.00" fill="#000000"> &#160;Providers</text>
<polygon fill="#fb8072" stroke="transparent" points="406,-10 406,-30 426,-30 426,-10 406,-10"/>
<text text-anchor="start" x="429.7258" y="-15.4" font-family="sans-serif" font-size="14.00" fill="#000000"> &#160;Exports</text>
<g id="clust1" class="cluster">
<title>cluster_CoreModule</title>
<polygon fill="none" stroke="#000000" stroke-dasharray="1,5" points="70,-70 70,-268 426,-268 426,-70 70,-70"/>
</g>
<g id="clust2" class="cluster">
<title>cluster_CoreModule_declarations</title>
<polygon fill="none" stroke="#000000" points="258,-78 258,-130 418,-130 418,-78 258,-78"/>
</g>
<g id="clust4" class="cluster">
<title>cluster_CoreModule_imports</title>
<polygon fill="none" stroke="#000000" points="78,-78 78,-130 250,-130 250,-78 78,-78"/>
</g>
<g id="clust5" class="cluster">
<title>cluster_CoreModule_exports</title>
<polygon fill="none" stroke="#000000" points="168,-208 168,-260 332,-260 332,-208 168,-208"/>
</g>
<!-- SiteHeaderComponent -->
<g id="node1" class="node">
<title>SiteHeaderComponent</title>
<polygon fill="#ffffb3" stroke="#000000" points="409.5226,-122 266.4774,-122 266.4774,-86 409.5226,-86 409.5226,-122"/>
<text text-anchor="middle" x="338" y="-99.8" font-family="Times,serif" font-size="14.00" fill="#000000">SiteHeaderComponent</text>
</g>
<!-- CoreModule -->
<g id="node2" class="node">
<title>CoreModule</title>
<polygon fill="#8dd3c7" stroke="#000000" points="293.2619,-187 290.2619,-191 269.2619,-191 266.2619,-187 206.7381,-187 206.7381,-151 293.2619,-151 293.2619,-187"/>
<text text-anchor="middle" x="250" y="-164.8" font-family="Times,serif" font-size="14.00" fill="#000000">CoreModule</text>
</g>
<!-- SiteHeaderComponent&#45;&gt;CoreModule -->
<g id="edge1" class="edge">
<title>SiteHeaderComponent&#45;&gt;CoreModule</title>
<path fill="none" stroke="#000000" d="M279.81,-122.1061C279.81,-122.1061 279.81,-140.991 279.81,-140.991"/>
<polygon fill="#000000" stroke="#000000" points="276.31,-140.9909 279.81,-150.991 283.31,-140.991 276.31,-140.9909"/>
</g>
<!-- SiteHeaderComponent  -->
<g id="node4" class="node">
<title>SiteHeaderComponent </title>
<polygon fill="#fb8072" stroke="#000000" points="323.5218,-252 176.4782,-252 176.4782,-216 323.5218,-216 323.5218,-252"/>
<text text-anchor="middle" x="250" y="-229.8" font-family="Times,serif" font-size="14.00" fill="#000000">SiteHeaderComponent </text>
</g>
<!-- CoreModule&#45;&gt;SiteHeaderComponent  -->
<g id="edge3" class="edge">
<title>CoreModule&#45;&gt;SiteHeaderComponent </title>
<path fill="none" stroke="#000000" stroke-dasharray="5,2" d="M250,-187.1061C250,-187.1061 250,-205.991 250,-205.991"/>
<polygon fill="#000000" stroke="#000000" points="246.5001,-205.9909 250,-215.991 253.5001,-205.991 246.5001,-205.9909"/>
</g>
<!-- TrainingMaterialModule -->
<g id="node3" class="node">
<title>TrainingMaterialModule</title>
<polygon fill="#8dd3c7" stroke="#000000" points="241.6797,-122 238.6797,-126 217.6797,-126 214.6797,-122 86.3203,-122 86.3203,-86 241.6797,-86 241.6797,-122"/>
<text text-anchor="middle" x="164" y="-99.8" font-family="Times,serif" font-size="14.00" fill="#000000">TrainingMaterialModule</text>
</g>
<!-- TrainingMaterialModule&#45;&gt;CoreModule -->
<g id="edge2" class="edge">
<title>TrainingMaterialModule&#45;&gt;CoreModule</title>
<path fill="none" stroke="#000000" d="M224.1045,-122.1061C224.1045,-122.1061 224.1045,-140.991 224.1045,-140.991"/>
<polygon fill="#000000" stroke="#000000" points="220.6046,-140.9909 224.1045,-150.991 227.6046,-140.991 220.6046,-140.9909"/>
</g>
</g>
</svg>
