<?xml version="1.0" encoding="UTF-8" standalone="no"?>
<!DOCTYPE svg PUBLIC "-//W3C//DTD SVG 1.1//EN"
 "http://www.w3.org/Graphics/SVG/1.1/DTD/svg11.dtd">
<!-- Generated by graphviz version 2.40.1 (20161225.0304)
 -->
<!-- Title: dependencies Pages: 1 -->
<svg width="868pt" height="211pt"
 viewBox="0.00 0.00 868.00 211.00" xmlns="http://www.w3.org/2000/svg" xmlns:xlink="http://www.w3.org/1999/xlink">
<g id="graph0" class="graph" transform="scale(1 1) rotate(0) translate(4 207)">
<title>dependencies</title>
<polygon fill="#ffffff" stroke="transparent" points="-4,4 -4,-207 864,-207 864,4 -4,4"/>
<text text-anchor="start" x="409.0091" y="-42.4" font-family="sans-serif" font-weight="bold" font-size="14.00" fill="#000000">Legend</text>
<polygon fill="#ffffb3" stroke="transparent" points="196,-10 196,-30 216,-30 216,-10 196,-10"/>
<text text-anchor="start" x="219.629" y="-15.4" font-family="sans-serif" font-size="14.00" fill="#000000"> &#160;Declarations</text>
<polygon fill="#8dd3c7" stroke="transparent" points="309,-10 309,-30 329,-30 329,-10 309,-10"/>
<text text-anchor="start" x="332.7251" y="-15.4" font-family="sans-serif" font-size="14.00" fill="#000000"> &#160;Module</text>
<polygon fill="#80b1d3" stroke="transparent" points="395,-10 395,-30 415,-30 415,-10 395,-10"/>
<text text-anchor="start" x="418.7812" y="-15.4" font-family="sans-serif" font-size="14.00" fill="#000000"> &#160;Bootstrap</text>
<polygon fill="#fdb462" stroke="transparent" points="492,-10 492,-30 512,-30 512,-10 492,-10"/>
<text text-anchor="start" x="515.6732" y="-15.4" font-family="sans-serif" font-size="14.00" fill="#000000"> &#160;Providers</text>
<polygon fill="#fb8072" stroke="transparent" points="588,-10 588,-30 608,-30 608,-10 588,-10"/>
<text text-anchor="start" x="611.7258" y="-15.4" font-family="sans-serif" font-size="14.00" fill="#000000"> &#160;Exports</text>
<g id="clust1" class="cluster">
<title>cluster_ProfileModule</title>
<polygon fill="none" stroke="#000000" stroke-dasharray="1,5" points="8,-70 8,-195 852,-195 852,-70 8,-70"/>
</g>
<g id="clust2" class="cluster">
<title>cluster_ProfileModule_declarations</title>
<polygon fill="none" stroke="#000000" points="356,-78 356,-130 844,-130 844,-78 356,-78"/>
</g>
<g id="clust6" class="cluster">
<title>cluster_ProfileModule_imports</title>
<polygon fill="none" stroke="#000000" points="16,-78 16,-130 348,-130 348,-78 16,-78"/>
</g>
<!-- ProfileComponent -->
<g id="node1" class="node">
<title>ProfileComponent</title>
<polygon fill="#ffffb3" stroke="#000000" points="835.9328,-122 716.0672,-122 716.0672,-86 835.9328,-86 835.9328,-122"/>
<text text-anchor="middle" x="776" y="-99.8" font-family="Times,serif" font-size="14.00" fill="#000000">ProfileComponent</text>
</g>
<!-- ProfileModule -->
<g id="node4" class="node">
<title>ProfileModule</title>
<polygon fill="#8dd3c7" stroke="#000000" points="499.65,-187 496.65,-191 475.65,-191 472.65,-187 402.35,-187 402.35,-151 499.65,-151 499.65,-187"/>
<text text-anchor="middle" x="451" y="-164.8" font-family="Times,serif" font-size="14.00" fill="#000000">ProfileModule</text>
</g>
<!-- ProfileComponent&#45;&gt;ProfileModule -->
<g id="edge1" class="edge">
<title>ProfileComponent&#45;&gt;ProfileModule</title>
<path fill="none" stroke="#000000" d="M776,-122.2843C776,-143.3211 776,-175 776,-175 776,-175 509.6558,-175 509.6558,-175"/>
<polygon fill="#000000" stroke="#000000" points="509.6558,-171.5001 499.6558,-175 509.6557,-178.5001 509.6558,-171.5001"/>
</g>
<!-- ProfileEditComponent -->
<g id="node2" class="node">
<title>ProfileEditComponent</title>
<polygon fill="#ffffb3" stroke="#000000" points="698.266,-122 555.734,-122 555.734,-86 698.266,-86 698.266,-122"/>
<text text-anchor="middle" x="627" y="-99.8" font-family="Times,serif" font-size="14.00" fill="#000000">ProfileEditComponent</text>
</g>
<!-- ProfileEditComponent&#45;&gt;ProfileModule -->
<g id="edge2" class="edge">
<title>ProfileEditComponent&#45;&gt;ProfileModule</title>
<path fill="none" stroke="#000000" d="M627,-122.0225C627,-139.3734 627,-163 627,-163 627,-163 510.0258,-163 510.0258,-163"/>
<polygon fill="#000000" stroke="#000000" points="510.0258,-159.5001 500.0258,-163 510.0258,-166.5001 510.0258,-159.5001"/>
</g>
<!-- ProfileEditFormComponent -->
<g id="node3" class="node">
<title>ProfileEditFormComponent</title>
<polygon fill="#ffffb3" stroke="#000000" points="537.5996,-122 364.4004,-122 364.4004,-86 537.5996,-86 537.5996,-122"/>
<text text-anchor="middle" x="451" y="-99.8" font-family="Times,serif" font-size="14.00" fill="#000000">ProfileEditFormComponent</text>
</g>
<!-- ProfileEditFormComponent&#45;&gt;ProfileModule -->
<g id="edge3" class="edge">
<title>ProfileEditFormComponent&#45;&gt;ProfileModule</title>
<path fill="none" stroke="#000000" d="M451,-122.1061C451,-122.1061 451,-140.991 451,-140.991"/>
<polygon fill="#000000" stroke="#000000" points="447.5001,-140.9909 451,-150.991 454.5001,-140.991 447.5001,-140.9909"/>
</g>
<!-- ProfileRoutingModule -->
<g id="node5" class="node">
<title>ProfileRoutingModule</title>
<polygon fill="#8dd3c7" stroke="#000000" points="340.2674,-122 337.2674,-126 316.2674,-126 313.2674,-122 197.7326,-122 197.7326,-86 340.2674,-86 340.2674,-122"/>
<text text-anchor="middle" x="269" y="-99.8" font-family="Times,serif" font-size="14.00" fill="#000000">ProfileRoutingModule</text>
</g>
<!-- ProfileRoutingModule&#45;&gt;ProfileModule -->
<g id="edge4" class="edge">
<title>ProfileRoutingModule&#45;&gt;ProfileModule</title>
<path fill="none" stroke="#000000" d="M269,-122.0225C269,-139.3734 269,-163 269,-163 269,-163 392.2273,-163 392.2273,-163"/>
<polygon fill="#000000" stroke="#000000" points="392.2274,-166.5001 402.2273,-163 392.2273,-159.5001 392.2274,-166.5001"/>
</g>
<!-- TrainingMaterialModule -->
<g id="node6" class="node">
<title>TrainingMaterialModule</title>
<polygon fill="#8dd3c7" stroke="#000000" points="179.6797,-122 176.6797,-126 155.6797,-126 152.6797,-122 24.3203,-122 24.3203,-86 179.6797,-86 179.6797,-122"/>
<text text-anchor="middle" x="102" y="-99.8" font-family="Times,serif" font-size="14.00" fill="#000000">TrainingMaterialModule</text>
</g>
<!-- TrainingMaterialModule&#45;&gt;ProfileModule -->
<g id="edge5" class="edge">
<title>TrainingMaterialModule&#45;&gt;ProfileModule</title>
<path fill="none" stroke="#000000" d="M102,-122.2843C102,-143.3211 102,-175 102,-175 102,-175 392.1056,-175 392.1056,-175"/>
<polygon fill="#000000" stroke="#000000" points="392.1056,-178.5001 402.1056,-175 392.1055,-171.5001 392.1056,-178.5001"/>
</g>
</g>
</svg>
