<?xml version="1.0" encoding="UTF-8" standalone="no"?>
<!DOCTYPE svg PUBLIC "-//W3C//DTD SVG 1.1//EN"
 "http://www.w3.org/Graphics/SVG/1.1/DTD/svg11.dtd">
<!-- Generated by graphviz version 2.40.1 (20161225.0304)
 -->
<!-- Title: dependencies Pages: 1 -->
<svg width="843pt" height="284pt"
 viewBox="0.00 0.00 843.00 284.00" xmlns="http://www.w3.org/2000/svg" xmlns:xlink="http://www.w3.org/1999/xlink">
<g id="graph0" class="graph" transform="scale(1 1) rotate(0) translate(4 280)">
<title>dependencies</title>
<polygon fill="#ffffff" stroke="transparent" points="-4,4 -4,-280 839,-280 839,4 -4,4"/>
<text text-anchor="start" x="396.5091" y="-42.4" font-family="sans-serif" font-weight="bold" font-size="14.00" fill="#000000">Legend</text>
<polygon fill="#ffffb3" stroke="transparent" points="183.5,-10 183.5,-30 203.5,-30 203.5,-10 183.5,-10"/>
<text text-anchor="start" x="207.129" y="-15.4" font-family="sans-serif" font-size="14.00" fill="#000000"> &#160;Declarations</text>
<polygon fill="#8dd3c7" stroke="transparent" points="296.5,-10 296.5,-30 316.5,-30 316.5,-10 296.5,-10"/>
<text text-anchor="start" x="320.2251" y="-15.4" font-family="sans-serif" font-size="14.00" fill="#000000"> &#160;Module</text>
<polygon fill="#80b1d3" stroke="transparent" points="382.5,-10 382.5,-30 402.5,-30 402.5,-10 382.5,-10"/>
<text text-anchor="start" x="406.2812" y="-15.4" font-family="sans-serif" font-size="14.00" fill="#000000"> &#160;Bootstrap</text>
<polygon fill="#fdb462" stroke="transparent" points="479.5,-10 479.5,-30 499.5,-30 499.5,-10 479.5,-10"/>
<text text-anchor="start" x="503.1732" y="-15.4" font-family="sans-serif" font-size="14.00" fill="#000000"> &#160;Providers</text>
<polygon fill="#fb8072" stroke="transparent" points="575.5,-10 575.5,-30 595.5,-30 595.5,-10 575.5,-10"/>
<text text-anchor="start" x="599.2258" y="-15.4" font-family="sans-serif" font-size="14.00" fill="#000000"> &#160;Exports</text>
<g id="clust1" class="cluster">
<title>cluster_AppModule</title>
<polygon fill="none" stroke="#000000" stroke-dasharray="1,5" points="8,-70 8,-268 827,-268 827,-70 8,-70"/>
</g>
<g id="clust2" class="cluster">
<title>cluster_AppModule_declarations</title>
<polygon fill="none" stroke="#000000" points="564,-78 564,-130 819,-130 819,-78 564,-78"/>
</g>
<g id="clust5" class="cluster">
<title>cluster_AppModule_imports</title>
<polygon fill="none" stroke="#000000" points="16,-78 16,-130 556,-130 556,-78 16,-78"/>
</g>
<g id="clust6" class="cluster">
<title>cluster_AppModule_exports</title>
<polygon fill="none" stroke="#000000" points="256,-208 256,-260 430,-260 430,-208 256,-208"/>
</g>
<g id="clust7" class="cluster">
<title>cluster_AppModule_bootstrap</title>
<polygon fill="none" stroke="#000000" points="438,-208 438,-260 562,-260 562,-208 438,-208"/>
</g>
<!-- AppComponent -->
<g id="node1" class="node">
<title>AppComponent</title>
<polygon fill="#ffffb3" stroke="#000000" points="810.9399,-122 705.0601,-122 705.0601,-86 810.9399,-86 810.9399,-122"/>
<text text-anchor="middle" x="758" y="-99.8" font-family="Times,serif" font-size="14.00" fill="#000000">AppComponent</text>
</g>
<!-- AppModule -->
<g id="node3" class="node">
<title>AppModule</title>
<polygon fill="#8dd3c7" stroke="#000000" points="462.6571,-187 459.6571,-191 438.6571,-191 435.6571,-187 379.3429,-187 379.3429,-151 462.6571,-151 462.6571,-187"/>
<text text-anchor="middle" x="421" y="-164.8" font-family="Times,serif" font-size="14.00" fill="#000000">AppModule</text>
</g>
<!-- AppComponent&#45;&gt;AppModule -->
<g id="edge1" class="edge">
<title>AppComponent&#45;&gt;AppModule</title>
<path fill="none" stroke="#000000" d="M758,-122.2843C758,-143.3211 758,-175 758,-175 758,-175 472.6608,-175 472.6608,-175"/>
<polygon fill="#000000" stroke="#000000" points="472.6608,-171.5001 462.6608,-175 472.6608,-178.5001 472.6608,-171.5001"/>
</g>
<!-- HomeComponent -->
<g id="node2" class="node">
<title>HomeComponent</title>
<polygon fill="#ffffb3" stroke="#000000" points="687.5451,-122 572.4549,-122 572.4549,-86 687.5451,-86 687.5451,-122"/>
<text text-anchor="middle" x="630" y="-99.8" font-family="Times,serif" font-size="14.00" fill="#000000">HomeComponent</text>
</g>
<!-- HomeComponent&#45;&gt;AppModule -->
<g id="edge2" class="edge">
<title>HomeComponent&#45;&gt;AppModule</title>
<path fill="none" stroke="#000000" d="M630,-122.0225C630,-139.3734 630,-163 630,-163 630,-163 472.792,-163 472.792,-163"/>
<polygon fill="#000000" stroke="#000000" points="472.792,-159.5001 462.792,-163 472.7919,-166.5001 472.792,-159.5001"/>
</g>
<!-- TrainingMaterialModule  -->
<g id="node8" class="node">
<title>TrainingMaterialModule </title>
<polygon fill="#fb8072" stroke="#000000" points="422.1799,-252 263.8201,-252 263.8201,-216 422.1799,-216 422.1799,-252"/>
<text text-anchor="middle" x="343" y="-229.8" font-family="Times,serif" font-size="14.00" fill="#000000">TrainingMaterialModule </text>
</g>
<!-- AppModule&#45;&gt;TrainingMaterialModule  -->
<g id="edge7" class="edge">
<title>AppModule&#45;&gt;TrainingMaterialModule </title>
<path fill="none" stroke="#000000" stroke-dasharray="5,2" d="M400.7558,-187.1061C400.7558,-187.1061 400.7558,-205.991 400.7558,-205.991"/>
<polygon fill="#000000" stroke="#000000" points="397.2559,-205.9909 400.7558,-215.991 404.2559,-205.991 397.2559,-205.9909"/>
</g>
<!-- AppComponent  -->
<g id="node9" class="node">
<title>AppComponent </title>
<polygon fill="#80b1d3" stroke="#000000" points="554.439,-252 445.561,-252 445.561,-216 554.439,-216 554.439,-252"/>
<text text-anchor="middle" x="500" y="-229.8" font-family="Times,serif" font-size="14.00" fill="#000000">AppComponent </text>
</g>
<!-- AppModule&#45;&gt;AppComponent  -->
<g id="edge8" class="edge">
<title>AppModule&#45;&gt;AppComponent </title>
<path fill="none" stroke="#000000" stroke-dasharray="1,5" d="M454.1794,-187.1061C454.1794,-187.1061 454.1794,-205.991 454.1794,-205.991"/>
<polygon fill="#000000" stroke="#000000" points="450.6794,-205.9909 454.1794,-215.991 457.6794,-205.991 450.6794,-205.9909"/>
</g>
<!-- AppRoutingModule -->
<g id="node4" class="node">
<title>AppRoutingModule</title>
<polygon fill="#8dd3c7" stroke="#000000" points="548.2744,-122 545.2744,-126 524.2744,-126 521.2744,-122 419.7256,-122 419.7256,-86 548.2744,-86 548.2744,-122"/>
<text text-anchor="middle" x="484" y="-99.8" font-family="Times,serif" font-size="14.00" fill="#000000">AppRoutingModule</text>
</g>
<!-- AppRoutingModule&#45;&gt;AppModule -->
<g id="edge3" class="edge">
<title>AppRoutingModule&#45;&gt;AppModule</title>
<path fill="none" stroke="#000000" d="M441.2206,-122.1061C441.2206,-122.1061 441.2206,-140.991 441.2206,-140.991"/>
<polygon fill="#000000" stroke="#000000" points="437.7206,-140.9909 441.2206,-150.991 444.7206,-140.991 437.7206,-140.9909"/>
</g>
<!-- CoreModule -->
<g id="node5" class="node">
<title>CoreModule</title>
<polygon fill="#8dd3c7" stroke="#000000" points="401.2619,-122 398.2619,-126 377.2619,-126 374.2619,-122 314.7381,-122 314.7381,-86 401.2619,-86 401.2619,-122"/>
<text text-anchor="middle" x="358" y="-99.8" font-family="Times,serif" font-size="14.00" fill="#000000">CoreModule</text>
</g>
<!-- CoreModule&#45;&gt;AppModule -->
<g id="edge4" class="edge">
<title>CoreModule&#45;&gt;AppModule</title>
<path fill="none" stroke="#000000" d="M390.2763,-122.1061C390.2763,-122.1061 390.2763,-140.991 390.2763,-140.991"/>
<polygon fill="#000000" stroke="#000000" points="386.7764,-140.9909 390.2763,-150.991 393.7764,-140.991 386.7764,-140.9909"/>
</g>
<!-- SharedModule -->
<g id="node6" class="node">
<title>SharedModule</title>
<polygon fill="#8dd3c7" stroke="#000000" points="296.4231,-122 293.4231,-126 272.4231,-126 269.4231,-122 197.5769,-122 197.5769,-86 296.4231,-86 296.4231,-122"/>
<text text-anchor="middle" x="247" y="-99.8" font-family="Times,serif" font-size="14.00" fill="#000000">SharedModule</text>
</g>
<!-- SharedModule&#45;&gt;AppModule -->
<g id="edge5" class="edge">
<title>SharedModule&#45;&gt;AppModule</title>
<path fill="none" stroke="#000000" d="M279.9357,-122.0225C279.9357,-139.3734 279.9357,-163 279.9357,-163 279.9357,-163 369.058,-163 369.058,-163"/>
<polygon fill="#000000" stroke="#000000" points="369.058,-166.5001 379.058,-163 369.0579,-159.5001 369.058,-166.5001"/>
</g>
<!-- TrainingMaterialModule -->
<g id="node7" class="node">
<title>TrainingMaterialModule</title>
<polygon fill="#8dd3c7" stroke="#000000" points="179.6797,-122 176.6797,-126 155.6797,-126 152.6797,-122 24.3203,-122 24.3203,-86 179.6797,-86 179.6797,-122"/>
<text text-anchor="middle" x="102" y="-99.8" font-family="Times,serif" font-size="14.00" fill="#000000">TrainingMaterialModule</text>
</g>
<!-- TrainingMaterialModule&#45;&gt;AppModule -->
<g id="edge6" class="edge">
<title>TrainingMaterialModule&#45;&gt;AppModule</title>
<path fill="none" stroke="#000000" d="M102,-122.2843C102,-143.3211 102,-175 102,-175 102,-175 369.2963,-175 369.2963,-175"/>
<polygon fill="#000000" stroke="#000000" points="369.2964,-178.5001 379.2963,-175 369.2963,-171.5001 369.2964,-178.5001"/>
</g>
</g>
</svg>
