<?xml version="1.0" encoding="UTF-8" standalone="no"?>
<!DOCTYPE svg PUBLIC "-//W3C//DTD SVG 1.1//EN"
 "http://www.w3.org/Graphics/SVG/1.1/DTD/svg11.dtd">
<!-- Generated by graphviz version 2.40.1 (20161225.0304)
 -->
<!-- Title: dependencies Pages: 1 -->
<svg width="2168pt" height="355pt"
 viewBox="0.00 0.00 2168.00 355.00" xmlns="http://www.w3.org/2000/svg" xmlns:xlink="http://www.w3.org/1999/xlink">
<g id="graph0" class="graph" transform="scale(1 1) rotate(0) translate(4 351)">
<title>dependencies</title>
<polygon fill="#ffffff" stroke="transparent" points="-4,4 -4,-351 2164,-351 2164,4 -4,4"/>
<text text-anchor="start" x="1059.0091" y="-42.4" font-family="sans-serif" font-weight="bold" font-size="14.00" fill="#000000">Legend</text>
<polygon fill="#ffffb3" stroke="transparent" points="846,-10 846,-30 866,-30 866,-10 846,-10"/>
<text text-anchor="start" x="869.629" y="-15.4" font-family="sans-serif" font-size="14.00" fill="#000000"> &#160;Declarations</text>
<polygon fill="#8dd3c7" stroke="transparent" points="959,-10 959,-30 979,-30 979,-10 959,-10"/>
<text text-anchor="start" x="982.7251" y="-15.4" font-family="sans-serif" font-size="14.00" fill="#000000"> &#160;Module</text>
<polygon fill="#80b1d3" stroke="transparent" points="1045,-10 1045,-30 1065,-30 1065,-10 1045,-10"/>
<text text-anchor="start" x="1068.7812" y="-15.4" font-family="sans-serif" font-size="14.00" fill="#000000"> &#160;Bootstrap</text>
<polygon fill="#fdb462" stroke="transparent" points="1142,-10 1142,-30 1162,-30 1162,-10 1142,-10"/>
<text text-anchor="start" x="1165.6732" y="-15.4" font-family="sans-serif" font-size="14.00" fill="#000000"> &#160;Providers</text>
<polygon fill="#fb8072" stroke="transparent" points="1238,-10 1238,-30 1258,-30 1258,-10 1238,-10"/>
<text text-anchor="start" x="1261.7258" y="-15.4" font-family="sans-serif" font-size="14.00" fill="#000000"> &#160;Exports</text>
<g id="clust1" class="cluster">
<title>cluster_AppModule</title>
<polygon fill="none" stroke="#000000" stroke-dasharray="1,5" points="8,-70 8,-339 774,-339 774,-70 8,-70"/>
</g>
<g id="clust2" class="cluster">
<title>cluster_AppModule_declarations</title>
<polygon fill="none" stroke="#000000" points="68,-143 68,-195 323,-195 323,-143 68,-143"/>
</g>
<g id="clust5" class="cluster">
<title>cluster_AppModule_imports</title>
<polygon fill="none" stroke="#000000" points="331,-78 331,-195 766,-195 766,-78 331,-78"/>
</g>
<g id="clust6" class="cluster">
<title>cluster_AppModule_exports</title>
<polygon fill="none" stroke="#000000" points="31,-279 31,-331 205,-331 205,-279 31,-279"/>
</g>
<g id="clust7" class="cluster">
<title>cluster_AppModule_bootstrap</title>
<polygon fill="none" stroke="#000000" points="213,-279 213,-331 337,-331 337,-279 213,-279"/>
</g>
<g id="clust15" class="cluster">
<title>cluster_CoreModule</title>
<polygon fill="none" stroke="#000000" stroke-dasharray="1,5" points="782,-203 782,-271 1130,-271 1130,-203 782,-203"/>
</g>
<g id="clust16" class="cluster">
<title>cluster_CoreModule_declarations</title>
<polygon fill="none" stroke="#000000" points="962,-211 962,-263 1122,-263 1122,-211 962,-211"/>
</g>
<g id="clust19" class="cluster">
<title>cluster_CoreModule_exports</title>
<polygon fill="none" stroke="#000000" points="790,-211 790,-263 954,-263 954,-211 790,-211"/>
</g>
<g id="clust22" class="cluster">
<title>cluster_DashboardModule</title>
<polygon fill="none" stroke="#000000" stroke-dasharray="1,5" points="1460,-70 1460,-195 1824,-195 1824,-70 1460,-70"/>
</g>
<g id="clust23" class="cluster">
<title>cluster_DashboardModule_declarations</title>
<polygon fill="none" stroke="#000000" points="1658,-78 1658,-130 1816,-130 1816,-78 1658,-78"/>
</g>
<g id="clust25" class="cluster">
<title>cluster_DashboardModule_imports</title>
<polygon fill="none" stroke="#000000" points="1468,-78 1468,-130 1650,-130 1650,-78 1468,-78"/>
</g>
<g id="clust35" class="cluster">
<title>cluster_GamesModule</title>
<polygon fill="none" stroke="#000000" stroke-dasharray="1,5" points="1832,-70 1832,-195 2152,-195 2152,-70 1832,-70"/>
</g>
<g id="clust36" class="cluster">
<title>cluster_GamesModule_declarations</title>
<polygon fill="none" stroke="#000000" points="2008,-78 2008,-130 2144,-130 2144,-78 2008,-78"/>
</g>
<g id="clust38" class="cluster">
<title>cluster_GamesModule_imports</title>
<polygon fill="none" stroke="#000000" points="1840,-78 1840,-130 2000,-130 2000,-78 1840,-78"/>
</g>
<g id="clust48" class="cluster">
<title>cluster_ProfileModule</title>
<polygon fill="none" stroke="#000000" stroke-dasharray="1,5" points="782,-70 782,-195 1452,-195 1452,-70 782,-70"/>
</g>
<g id="clust49" class="cluster">
<title>cluster_ProfileModule_declarations</title>
<polygon fill="none" stroke="#000000" points="956,-78 956,-130 1444,-130 1444,-78 956,-78"/>
</g>
<g id="clust53" class="cluster">
<title>cluster_ProfileModule_imports</title>
<polygon fill="none" stroke="#000000" points="790,-78 790,-130 948,-130 948,-78 790,-78"/>
</g>
<!-- AppComponent -->
<g id="node1" class="node">
<title>AppComponent</title>
<polygon fill="#ffffb3" stroke="#000000" points="314.9399,-187 209.0601,-187 209.0601,-151 314.9399,-151 314.9399,-187"/>
<text text-anchor="middle" x="262" y="-164.8" font-family="Times,serif" font-size="14.00" fill="#000000">AppComponent</text>
</g>
<!-- AppModule -->
<g id="node3" class="node">
<title>AppModule</title>
<polygon fill="#8dd3c7" stroke="#000000" points="167.6571,-255 164.6571,-259 143.6571,-259 140.6571,-255 84.3429,-255 84.3429,-219 167.6571,-219 167.6571,-255"/>
<text text-anchor="middle" x="126" y="-232.8" font-family="Times,serif" font-size="14.00" fill="#000000">AppModule</text>
</g>
<!-- AppComponent&#45;&gt;AppModule -->
<g id="edge1" class="edge">
<title>AppComponent&#45;&gt;AppModule</title>
<path fill="none" stroke="#000000" d="M214.9055,-187.0225C214.9055,-204.3734 214.9055,-228 214.9055,-228 214.9055,-228 177.8494,-228 177.8494,-228"/>
<polygon fill="#000000" stroke="#000000" points="177.8495,-224.5001 167.8494,-228 177.8494,-231.5001 177.8495,-224.5001"/>
</g>
<!-- HomeComponent -->
<g id="node2" class="node">
<title>HomeComponent</title>
<polygon fill="#ffffb3" stroke="#000000" points="191.5451,-187 76.4549,-187 76.4549,-151 191.5451,-151 191.5451,-187"/>
<text text-anchor="middle" x="134" y="-164.8" font-family="Times,serif" font-size="14.00" fill="#000000">HomeComponent</text>
</g>
<!-- HomeComponent&#45;&gt;AppModule -->
<g id="edge2" class="edge">
<title>HomeComponent&#45;&gt;AppModule</title>
<path fill="none" stroke="#000000" d="M126,-187.2228C126,-187.2228 126,-208.7269 126,-208.7269"/>
<polygon fill="#000000" stroke="#000000" points="122.5001,-208.7269 126,-218.7269 129.5001,-208.727 122.5001,-208.7269"/>
</g>
<!-- TrainingMaterialModule  -->
<g id="node8" class="node">
<title>TrainingMaterialModule </title>
<polygon fill="#fb8072" stroke="#000000" points="197.1799,-323 38.8201,-323 38.8201,-287 197.1799,-287 197.1799,-323"/>
<text text-anchor="middle" x="118" y="-300.8" font-family="Times,serif" font-size="14.00" fill="#000000">TrainingMaterialModule </text>
</g>
<!-- AppModule&#45;&gt;TrainingMaterialModule  -->
<g id="edge7" class="edge">
<title>AppModule&#45;&gt;TrainingMaterialModule </title>
<path fill="none" stroke="#000000" stroke-dasharray="5,2" d="M126,-255.2228C126,-255.2228 126,-276.7269 126,-276.7269"/>
<polygon fill="#000000" stroke="#000000" points="122.5001,-276.7269 126,-286.7269 129.5001,-276.727 122.5001,-276.7269"/>
</g>
<!-- AppComponent  -->
<g id="node9" class="node">
<title>AppComponent </title>
<polygon fill="#80b1d3" stroke="#000000" points="329.439,-323 220.561,-323 220.561,-287 329.439,-287 329.439,-323"/>
<text text-anchor="middle" x="275" y="-300.8" font-family="Times,serif" font-size="14.00" fill="#000000">AppComponent </text>
</g>
<!-- AppModule&#45;&gt;AppComponent  -->
<g id="edge8" class="edge">
<title>AppModule&#45;&gt;AppComponent </title>
<path fill="none" stroke="#000000" stroke-dasharray="1,5" d="M167.7262,-251C209.502,-251 267.625,-251 267.625,-251 267.625,-251 267.625,-276.7181 267.625,-276.7181"/>
<polygon fill="#000000" stroke="#000000" points="264.1251,-276.718 267.625,-286.7181 271.1251,-276.7181 264.1251,-276.718"/>
</g>
<!-- AppRoutingModule -->
<g id="node4" class="node">
<title>AppRoutingModule</title>
<polygon fill="#8dd3c7" stroke="#000000" points="467.2744,-122 464.2744,-126 443.2744,-126 440.2744,-122 338.7256,-122 338.7256,-86 467.2744,-86 467.2744,-122"/>
<text text-anchor="middle" x="403" y="-99.8" font-family="Times,serif" font-size="14.00" fill="#000000">AppRoutingModule</text>
</g>
<!-- AppRoutingModule&#45;&gt;AppModule -->
<g id="edge3" class="edge">
<title>AppRoutingModule&#45;&gt;AppModule</title>
<path fill="none" stroke="#000000" d="M403,-122.2089C403,-157.7679 403,-233 403,-233 403,-233 177.7696,-233 177.7696,-233"/>
<polygon fill="#000000" stroke="#000000" points="177.7696,-229.5001 167.7696,-233 177.7696,-236.5001 177.7696,-229.5001"/>
</g>
<!-- CoreModule -->
<g id="node5" class="node">
<title>CoreModule</title>
<polygon fill="#8dd3c7" stroke="#000000" points="740.2619,-187 737.2619,-191 716.2619,-191 713.2619,-187 653.7381,-187 653.7381,-151 740.2619,-151 740.2619,-187"/>
<text text-anchor="middle" x="697" y="-164.8" font-family="Times,serif" font-size="14.00" fill="#000000">CoreModule</text>
</g>
<!-- CoreModule&#45;&gt;AppModule -->
<g id="edge4" class="edge">
<title>CoreModule&#45;&gt;AppModule</title>
<path fill="none" stroke="#000000" d="M682.5397,-187.2479C682.5397,-210.0179 682.5397,-246 682.5397,-246 682.5397,-246 177.8309,-246 177.8309,-246"/>
<polygon fill="#000000" stroke="#000000" points="177.831,-242.5001 167.8309,-246 177.8309,-249.5001 177.831,-242.5001"/>
</g>
<!-- SiteHeaderComponent  -->
<g id="node11" class="node">
<title>SiteHeaderComponent </title>
<polygon fill="#fb8072" stroke="#000000" points="945.5218,-255 798.4782,-255 798.4782,-219 945.5218,-219 945.5218,-255"/>
<text text-anchor="middle" x="872" y="-232.8" font-family="Times,serif" font-size="14.00" fill="#000000">SiteHeaderComponent </text>
</g>
<!-- CoreModule&#45;&gt;SiteHeaderComponent  -->
<g id="edge11" class="edge">
<title>CoreModule&#45;&gt;SiteHeaderComponent </title>
<path fill="none" stroke="#000000" stroke-dasharray="5,2" d="M711.4603,-187.0091C711.4603,-203.0494 711.4603,-224 711.4603,-224 711.4603,-224 788.3082,-224 788.3082,-224"/>
<polygon fill="#000000" stroke="#000000" points="788.3082,-227.5001 798.3082,-224 788.3082,-220.5001 788.3082,-227.5001"/>
</g>
<!-- SharedModule -->
<g id="node6" class="node">
<title>SharedModule</title>
<polygon fill="#8dd3c7" stroke="#000000" points="584.4231,-122 581.4231,-126 560.4231,-126 557.4231,-122 485.5769,-122 485.5769,-86 584.4231,-86 584.4231,-122"/>
<text text-anchor="middle" x="535" y="-99.8" font-family="Times,serif" font-size="14.00" fill="#000000">SharedModule</text>
</g>
<!-- SharedModule&#45;&gt;AppModule -->
<g id="edge5" class="edge">
<title>SharedModule&#45;&gt;AppModule</title>
<path fill="none" stroke="#000000" d="M535,-122.2142C535,-158.6396 535,-237 535,-237 535,-237 177.8481,-237 177.8481,-237"/>
<polygon fill="#000000" stroke="#000000" points="177.8481,-233.5001 167.8481,-237 177.8481,-240.5001 177.8481,-233.5001"/>
</g>
<!-- TrainingMaterialModule -->
<g id="node7" class="node">
<title>TrainingMaterialModule</title>
<polygon fill="#8dd3c7" stroke="#000000" points="757.6797,-122 754.6797,-126 733.6797,-126 730.6797,-122 602.3203,-122 602.3203,-86 757.6797,-86 757.6797,-122"/>
<text text-anchor="middle" x="680" y="-99.8" font-family="Times,serif" font-size="14.00" fill="#000000">TrainingMaterialModule</text>
</g>
<!-- TrainingMaterialModule&#45;&gt;AppModule -->
<g id="edge6" class="edge">
<title>TrainingMaterialModule&#45;&gt;AppModule</title>
<path fill="none" stroke="#000000" d="M628.0147,-122.0411C628.0147,-159.4476 628.0147,-242 628.0147,-242 628.0147,-242 177.938,-242 177.938,-242"/>
<polygon fill="#000000" stroke="#000000" points="177.9381,-238.5001 167.938,-242 177.938,-245.5001 177.9381,-238.5001"/>
</g>
<!-- TrainingMaterialModule&#45;&gt;CoreModule -->
<g id="edge10" class="edge">
<title>TrainingMaterialModule&#45;&gt;CoreModule</title>
<path fill="none" stroke="#000000" d="M697,-122.1061C697,-122.1061 697,-140.991 697,-140.991"/>
<polygon fill="#000000" stroke="#000000" points="693.5001,-140.9909 697,-150.991 700.5001,-140.991 693.5001,-140.9909"/>
</g>
<!-- ProfileModule -->
<g id="node21" class="node">
<title>ProfileModule</title>
<polygon fill="#8dd3c7" stroke="#000000" points="1099.65,-187 1096.65,-191 1075.65,-191 1072.65,-187 1002.35,-187 1002.35,-151 1099.65,-151 1099.65,-187"/>
<text text-anchor="middle" x="1051" y="-164.8" font-family="Times,serif" font-size="14.00" fill="#000000">ProfileModule</text>
</g>
<!-- TrainingMaterialModule&#45;&gt;ProfileModule -->
<g id="edge20" class="edge">
<title>TrainingMaterialModule&#45;&gt;ProfileModule</title>
<path fill="none" stroke="#000000" d="M748.9853,-122.1061C748.9853,-141.3391 748.9853,-169 748.9853,-169 748.9853,-169 992.1405,-169 992.1405,-169"/>
<polygon fill="#000000" stroke="#000000" points="992.1405,-172.5001 1002.1405,-169 992.1404,-165.5001 992.1405,-172.5001"/>
</g>
<!-- SiteHeaderComponent -->
<g id="node10" class="node">
<title>SiteHeaderComponent</title>
<polygon fill="#ffffb3" stroke="#000000" points="1113.5226,-255 970.4774,-255 970.4774,-219 1113.5226,-219 1113.5226,-255"/>
<text text-anchor="middle" x="1042" y="-232.8" font-family="Times,serif" font-size="14.00" fill="#000000">SiteHeaderComponent</text>
</g>
<!-- SiteHeaderComponent&#45;&gt;CoreModule -->
<g id="edge9" class="edge">
<title>SiteHeaderComponent&#45;&gt;CoreModule</title>
<path fill="none" stroke="#000000" d="M986.2072,-218.9775C986.2072,-201.6266 986.2072,-178 986.2072,-178 986.2072,-178 750.2972,-178 750.2972,-178"/>
<polygon fill="#000000" stroke="#000000" points="750.2973,-174.5001 740.2972,-178 750.2972,-181.5001 750.2973,-174.5001"/>
</g>
<!-- DashboardComponent -->
<g id="node12" class="node">
<title>DashboardComponent</title>
<polygon fill="#ffffb3" stroke="#000000" points="1807.9734,-122 1666.0266,-122 1666.0266,-86 1807.9734,-86 1807.9734,-122"/>
<text text-anchor="middle" x="1737" y="-99.8" font-family="Times,serif" font-size="14.00" fill="#000000">DashboardComponent</text>
</g>
<!-- DashboardModule -->
<g id="node13" class="node">
<title>DashboardModule</title>
<polygon fill="#8dd3c7" stroke="#000000" points="1708.191,-187 1705.191,-191 1684.191,-191 1681.191,-187 1587.809,-187 1587.809,-151 1708.191,-151 1708.191,-187"/>
<text text-anchor="middle" x="1648" y="-164.8" font-family="Times,serif" font-size="14.00" fill="#000000">DashboardModule</text>
</g>
<!-- DashboardComponent&#45;&gt;DashboardModule -->
<g id="edge12" class="edge">
<title>DashboardComponent&#45;&gt;DashboardModule</title>
<path fill="none" stroke="#000000" d="M1687.0544,-122.1061C1687.0544,-122.1061 1687.0544,-140.991 1687.0544,-140.991"/>
<polygon fill="#000000" stroke="#000000" points="1683.5544,-140.9909 1687.0544,-150.991 1690.5544,-140.991 1683.5544,-140.9909"/>
</g>
<!-- DashboardRoutingModule -->
<g id="node14" class="node">
<title>DashboardRoutingModule</title>
<polygon fill="#8dd3c7" stroke="#000000" points="1641.8089,-122 1638.8089,-126 1617.8089,-126 1614.8089,-122 1476.1911,-122 1476.1911,-86 1641.8089,-86 1641.8089,-122"/>
<text text-anchor="middle" x="1559" y="-99.8" font-family="Times,serif" font-size="14.00" fill="#000000">DashboardRoutingModule</text>
</g>
<!-- DashboardRoutingModule&#45;&gt;DashboardModule -->
<g id="edge13" class="edge">
<title>DashboardRoutingModule&#45;&gt;DashboardModule</title>
<path fill="none" stroke="#000000" d="M1614.7795,-122.1061C1614.7795,-122.1061 1614.7795,-140.991 1614.7795,-140.991"/>
<polygon fill="#000000" stroke="#000000" points="1611.2795,-140.9909 1614.7795,-150.991 1618.2795,-140.991 1611.2795,-140.9909"/>
</g>
<!-- GamesComponent -->
<g id="node15" class="node">
<title>GamesComponent</title>
<polygon fill="#ffffb3" stroke="#000000" points="2136.2036,-122 2015.7964,-122 2015.7964,-86 2136.2036,-86 2136.2036,-122"/>
<text text-anchor="middle" x="2076" y="-99.8" font-family="Times,serif" font-size="14.00" fill="#000000">GamesComponent</text>
</g>
<!-- GamesModule -->
<g id="node16" class="node">
<title>GamesModule</title>
<polygon fill="#8dd3c7" stroke="#000000" points="2047.4217,-187 2044.4217,-191 2023.4217,-191 2020.4217,-187 1948.5783,-187 1948.5783,-151 2047.4217,-151 2047.4217,-187"/>
<text text-anchor="middle" x="1998" y="-164.8" font-family="Times,serif" font-size="14.00" fill="#000000">GamesModule</text>
</g>
<!-- GamesComponent&#45;&gt;GamesModule -->
<g id="edge14" class="edge">
<title>GamesComponent&#45;&gt;GamesModule</title>
<path fill="none" stroke="#000000" d="M2031.5544,-122.1061C2031.5544,-122.1061 2031.5544,-140.991 2031.5544,-140.991"/>
<polygon fill="#000000" stroke="#000000" points="2028.0544,-140.9909 2031.5544,-150.991 2035.0544,-140.991 2028.0544,-140.9909"/>
</g>
<!-- GamesRoutingModule -->
<g id="node17" class="node">
<title>GamesRoutingModule</title>
<polygon fill="#8dd3c7" stroke="#000000" points="1991.5393,-122 1988.5393,-126 1967.5393,-126 1964.5393,-122 1848.4607,-122 1848.4607,-86 1991.5393,-86 1991.5393,-122"/>
<text text-anchor="middle" x="1920" y="-99.8" font-family="Times,serif" font-size="14.00" fill="#000000">GamesRoutingModule</text>
</g>
<!-- GamesRoutingModule&#45;&gt;GamesModule -->
<g id="edge15" class="edge">
<title>GamesRoutingModule&#45;&gt;GamesModule</title>
<path fill="none" stroke="#000000" d="M1970.2795,-122.1061C1970.2795,-122.1061 1970.2795,-140.991 1970.2795,-140.991"/>
<polygon fill="#000000" stroke="#000000" points="1966.7795,-140.9909 1970.2795,-150.991 1973.7795,-140.991 1966.7795,-140.9909"/>
</g>
<!-- ProfileComponent -->
<g id="node18" class="node">
<title>ProfileComponent</title>
<polygon fill="#ffffb3" stroke="#000000" points="1435.9328,-122 1316.0672,-122 1316.0672,-86 1435.9328,-86 1435.9328,-122"/>
<text text-anchor="middle" x="1376" y="-99.8" font-family="Times,serif" font-size="14.00" fill="#000000">ProfileComponent</text>
</g>
<!-- ProfileComponent&#45;&gt;ProfileModule -->
<g id="edge16" class="edge">
<title>ProfileComponent&#45;&gt;ProfileModule</title>
<path fill="none" stroke="#000000" d="M1376,-122.2843C1376,-143.3211 1376,-175 1376,-175 1376,-175 1109.6558,-175 1109.6558,-175"/>
<polygon fill="#000000" stroke="#000000" points="1109.6558,-171.5001 1099.6558,-175 1109.6557,-178.5001 1109.6558,-171.5001"/>
</g>
<!-- ProfileEditComponent -->
<g id="node19" class="node">
<title>ProfileEditComponent</title>
<polygon fill="#ffffb3" stroke="#000000" points="1298.266,-122 1155.734,-122 1155.734,-86 1298.266,-86 1298.266,-122"/>
<text text-anchor="middle" x="1227" y="-99.8" font-family="Times,serif" font-size="14.00" fill="#000000">ProfileEditComponent</text>
</g>
<!-- ProfileEditComponent&#45;&gt;ProfileModule -->
<g id="edge17" class="edge">
<title>ProfileEditComponent&#45;&gt;ProfileModule</title>
<path fill="none" stroke="#000000" d="M1227,-122.0225C1227,-139.3734 1227,-163 1227,-163 1227,-163 1110.0258,-163 1110.0258,-163"/>
<polygon fill="#000000" stroke="#000000" points="1110.0258,-159.5001 1100.0258,-163 1110.0258,-166.5001 1110.0258,-159.5001"/>
</g>
<!-- ProfileEditFormComponent -->
<g id="node20" class="node">
<title>ProfileEditFormComponent</title>
<polygon fill="#ffffb3" stroke="#000000" points="1137.5996,-122 964.4004,-122 964.4004,-86 1137.5996,-86 1137.5996,-122"/>
<text text-anchor="middle" x="1051" y="-99.8" font-family="Times,serif" font-size="14.00" fill="#000000">ProfileEditFormComponent</text>
</g>
<!-- ProfileEditFormComponent&#45;&gt;ProfileModule -->
<g id="edge18" class="edge">
<title>ProfileEditFormComponent&#45;&gt;ProfileModule</title>
<path fill="none" stroke="#000000" d="M1051,-122.1061C1051,-122.1061 1051,-140.991 1051,-140.991"/>
<polygon fill="#000000" stroke="#000000" points="1047.5001,-140.9909 1051,-150.991 1054.5001,-140.991 1047.5001,-140.9909"/>
</g>
<!-- ProfileRoutingModule -->
<g id="node22" class="node">
<title>ProfileRoutingModule</title>
<polygon fill="#8dd3c7" stroke="#000000" points="940.2674,-122 937.2674,-126 916.2674,-126 913.2674,-122 797.7326,-122 797.7326,-86 940.2674,-86 940.2674,-122"/>
<text text-anchor="middle" x="869" y="-99.8" font-family="Times,serif" font-size="14.00" fill="#000000">ProfileRoutingModule</text>
</g>
<!-- ProfileRoutingModule&#45;&gt;ProfileModule -->
<g id="edge19" class="edge">
<title>ProfileRoutingModule&#45;&gt;ProfileModule</title>
<path fill="none" stroke="#000000" d="M869.4364,-122.027C869.4364,-138.3976 869.4364,-160 869.4364,-160 869.4364,-160 992.3443,-160 992.3443,-160"/>
<polygon fill="#000000" stroke="#000000" points="992.3443,-163.5001 1002.3443,-160 992.3442,-156.5001 992.3443,-163.5001"/>
</g>
</g>
</svg>
